<svg xmlns="http://www.w3.org/2000/svg" xmlns:xlink="http://www.w3.org/1999/xlink" viewBox="0 0 1000 1000" width="100%" height="100%" preserveAspectRatio="xMidYMid meet" style="transform:translate3d(0px, 0px, 0px)" xmlns:v="https://vecta.io/nano"><style><![CDATA[.B{fill-opacity:0}.C{opacity:.57}.D{stroke-linecap:round}.E{stroke-width:4}.F{stroke-linejoin:round}.G{stroke-width:2}.H{stroke-dasharray: 150 155}.I{stroke-dashoffset:-474}]]></style><defs><clipPath id="A"><path d="M0 0h1000v1000H0z"/></clipPath><radialGradient id="B" spreadMethod="pad" cx="146.396" cy="63.514" r="197.36" fx="146.396" fy="63.514" xlink:href="#AU"><stop offset="34%" stop-color="#72e9ff"/><stop offset="52%" stop-color="#6ae6ff"/><stop offset="70%" stop-color="#62e3ff"/></radialGradient><mask id="C"><path stroke="url(#D)" d=" M146.09100341796875,-9.008999824523926 C145.79800415039062,-9.008999824523926 145.50999450683594,-9.008999824523926 145.2169952392578,-9.008000373840332 C107.4530029296875,-8.892000198364258 71.98300170898438,-1.2690000534057617 45.3380012512207,12.456000328063965 C18.812000274658203,26.118999481201172 4.236999988555908,44.17900085449219 4.296000003814697,63.30699920654297 C4.418000221252441,102.79499816894531 67.36799621582031,134.7550048828125 144.79600524902344,134.75599670410156 C145.0850067138672,134.75599670410156 145.36900329589844,134.75599670410156 145.6580047607422,134.7550048828125 C183.4219970703125,134.63800048828125 218.89199829101562,127.01599884033203 245.53700256347656,113.29100036621094 C272.06298828125,99.62799835205078 286.6369934082031,81.56900024414062 286.5790100097656,62.441001892089844 C286.52099609375,43.3120002746582 271.8349914550781,25.343000411987305 245.2259979248047,11.842000007629395 C218.7050018310547,-1.6139999628067017 183.52699279785156,-9.008999824523926 146.09100341796875,-9.008999824523926z M146.01699829101562,-0.9210000038146973 C145.7570037841797,-0.9210000038146973 145.5019989013672,-0.9210000038146973 145.24200439453125,-0.9200000166893005 C111.72699737548828,-0.8169999718666077 80.24700164794922,5.947999954223633 56.60100173950195,18.128999710083008 C33.060001373291016,30.2549991607666 20.124000549316406,46.28200149536133 20.177000045776367,63.257999420166016 C20.28499984741211,98.3030014038086 76.1520004272461,126.66699981689453 144.8679962158203,126.66799926757812 C145.125,126.66799926757812 145.37600708007812,126.66799926757812 145.63299560546875,126.66699981689453 C179.1479949951172,126.56300354003906 210.6280059814453,119.79900360107422 234.2740020751953,107.61799621582031 C257.81500244140625,95.49199676513672 270.7510070800781,79.46399688720703 270.697998046875,62.48899841308594 C270.64599609375,45.512001037597656 257.6130065917969,29.565000534057617 233.9980010986328,17.583999633789062 C210.46099853515625,5.642000198364258 179.24099731445312,-0.9210000038146973 146.01699829101562,-0.9210000038146973z" class="E"/></mask><radialGradient id="D" spreadMethod="pad" cx="146.396" cy="63.514" r="197.36" fx="146.396" fy="63.514" xlink:href="#AU"><stop stop-color="#fff" offset="28%" stop-opacity="0"/><stop stop-color="#fff" offset="52%" stop-opacity=".5"/><stop stop-color="#fff" offset="77%"/></radialGradient><linearGradient id="E" spreadMethod="pad" x1="241.83" y1="66.941" x2="238.071" y2="60.427" xlink:href="#AU"><stop offset="0%" stop-color="#d1d3d4"/><stop offset="0%" stop-color="#bcbec0"/><stop offset="0%" stop-color="#a7a9ac"/><stop offset="6%" stop-color="#999ea2"/><stop offset="12%" stop-color="#8b9298"/><stop offset="25%" stop-color="#b6b9bc"/><stop offset="43%" stop-color="#e0e0e0"/><stop offset="76%" stop-color="#e2e1df"/><stop offset="100%" stop-color="#e5e2df"/><stop offset="100%" stop-color="#e1dedb"/><stop offset="100%" stop-color="#ded9d6"/></linearGradient><linearGradient id="F" spreadMethod="pad" x1="293.533" y1="22" x2="269.214" y2="37.333" xlink:href="#AU"><stop offset="0%" stop-color="#575757"/><stop offset="2%" stop-color="#565656" stop-opacity=".5"/><stop offset="3%" stop-color="#565656" stop-opacity="0"/><stop offset="30%" stop-color="#464646" stop-opacity=".5"/><stop offset="51%" stop-color="#373737"/><stop offset="75%" stop-color="#494949" stop-opacity=".5"/><stop offset="100%" stop-color="#5c5c5c" stop-opacity="0"/></linearGradient><linearGradient id="G" spreadMethod="pad" x1="75.533" y1="135" x2="106.625" y2="135" xlink:href="#AU"><stop offset="0%" stop-color="#565656" stop-opacity="0"/><stop offset="28%" stop-color="#464646" stop-opacity=".5"/><stop offset="51%" stop-color="#373737"/><stop offset="75%" stop-color="#494949" stop-opacity=".5"/><stop offset="100%" stop-color="#5c5c5c" stop-opacity="0"/></linearGradient><linearGradient id="H" spreadMethod="pad" x1="43.533" y1="117" x2="245.047" y2="-14.927" xlink:href="#AU"><stop offset="0%" stop-color="#d1d3d4"/><stop offset="0%" stop-color="#bcbec0"/><stop offset="0%" stop-color="#a7a9ac"/><stop offset="6%" stop-color="#999ea2"/><stop offset="12%" stop-color="#8b9298"/><stop offset="25%" stop-color="#b6b9bc"/><stop offset="43%" stop-color="#e0e0e0"/><stop offset="61%" stop-color="#93989a"/><stop offset="74%" stop-color="#465053"/><stop offset="85%" stop-color="#959999"/><stop offset="100%" stop-color="#e5e2df"/><stop offset="100%" stop-color="#e1dedb"/><stop offset="100%" stop-color="#ded9d6"/></linearGradient><linearGradient id="I" spreadMethod="pad" x1="-15.467" y1="53" x2="297.171" y2="53" xlink:href="#AU"><stop offset="0%" stop-color="#575757"/><stop offset="0%" stop-color="#555"/><stop offset="0%" stop-color="#545454"/><stop offset="15%" stop-color="#464646"/><stop offset="26%" stop-color="#373737"/><stop offset="39%" stop-color="#494949"/><stop offset="52%" stop-color="#5c5c5c"/><stop offset="72%" stop-color="#474747"/><stop offset="88%" stop-color="#333"/><stop offset="94%" stop-color="#424242"/><stop offset="100%" stop-color="#515151"/><stop offset="100%" stop-color="#494949"/><stop offset="100%" stop-color="#424242"/></linearGradient><linearGradient id="J" spreadMethod="pad" x1="-10.467" y1="53" x2="292.489" y2="53" xlink:href="#AU"><stop offset="0%" stop-color="#73cbfd"/><stop offset="67%" stop-color="#5da3fc"/><stop offset="100%" stop-color="#467bfb"/></linearGradient><linearGradient id="K" spreadMethod="pad" x1="234.626" y1="-7.544" x2="252.879" y2="2.591" xlink:href="#AU"><stop offset="0%" stop-color="#373737"/><stop offset="50%" stop-color="#494949"/><stop offset="100%" stop-color="#5c5c5c"/></linearGradient><linearGradient id="L" spreadMethod="pad" x1="263.533" y1="-63" x2="77.587" y2="122.946" xlink:href="#AU"><stop offset="0%" stop-color="#73cbfd"/><stop offset="67%" stop-color="#5da3fc"/><stop offset="100%" stop-color="#467bfb"/></linearGradient><linearGradient id="M" spreadMethod="pad" x1="70.533" y1="86" x2="70.533" y2="108.814" xlink:href="#AU"><stop offset="0%" stop-color="#73cbfd"/><stop offset="67%" stop-color="#5da3fc"/><stop offset="100%" stop-color="#467bfb"/></linearGradient><linearGradient id="N" spreadMethod="pad" x1="70.533" y1="62" x2="70.533" y2="105.932" xlink:href="#AU"><stop offset="0%" stop-color="#fff"/><stop offset="60%" stop-color="#d6f6fe"/><stop offset="100%" stop-color="#aeedfe"/></linearGradient><linearGradient id="O" spreadMethod="pad" x1="89.533" y1="76" x2="48.033" y2="101.5" xlink:href="#AU"><stop offset="0%" stop-color="#fff"/><stop offset="60%" stop-color="#d6f6fe"/><stop offset="100%" stop-color="#aeedfe"/></linearGradient><linearGradient id="P" spreadMethod="pad" x1="82.533" y1="75" x2="57.951" y2="99.581" xlink:href="#AU"><stop offset="0%" stop-color="#73fcf5"/><stop offset="67%" stop-color="#5dfad8"/><stop offset="100%" stop-color="#46f8ba"/></linearGradient><linearGradient id="Q" spreadMethod="pad" x1="217.533" y1="107" x2="276.664" y2="107" xlink:href="#AU"><stop offset="0%" stop-color="#73cbfd"/><stop offset="67%" stop-color="#5da3fc"/><stop offset="100%" stop-color="#467bfb"/></linearGradient><linearGradient id="R" spreadMethod="pad" x1="260.533" y1="96" x2="233.002" y2="114.745" xlink:href="#AU"><stop offset="0%" stop-color="#f3d038"/><stop offset="50%" stop-color="#e88955"/><stop offset="100%" stop-color="#dd4372"/></linearGradient><linearGradient id="S" spreadMethod="pad" x1="134.533" y1="179" x2="173.638" y2="179" xlink:href="#AU"><stop offset="0%" stop-color="#73cbfd"/><stop offset="67%" stop-color="#5da3fc"/><stop offset="100%" stop-color="#467bfb"/></linearGradient><linearGradient id="T" spreadMethod="pad" x1="161.574" y1="164.376" x2="151.264" y2="187.658" xlink:href="#AU"><stop offset="0%" stop-color="#fff"/><stop offset="60%" stop-color="#d6f6fe"/><stop offset="100%" stop-color="#aeedfe"/></linearGradient><linearGradient id="U" spreadMethod="pad" x1="51.547" y1="52.291" x2="135.338" y2="48.539" xlink:href="#AU"><stop offset="0%" stop-color="#7aebff"/><stop offset="62%" stop-color="#82ecff"/><stop offset="100%" stop-color="#89edff"/></linearGradient><mask id="V"><path fill="url(#W)" d="M201.126 47.391c.048 15.713-24.828 28.528-55.564 28.622S89.87 63.445 89.822 47.732s24.829-28.528 55.565-28.622 55.691 12.568 55.739 28.281z"/></mask><linearGradient id="W" spreadMethod="pad" x1="51.547" y1="52.291" x2="135.338" y2="48.539" xlink:href="#AU"><stop stop-color="#fff" offset="0%" stop-opacity="0"/><stop stop-color="#fff" offset="60%" stop-opacity=".5"/><stop stop-color="#fff" offset="100%"/></linearGradient><linearGradient id="X" spreadMethod="pad" x1="51.549" y1="41.291" x2="135.34" y2="37.539" xlink:href="#AU"><stop offset="0%" stop-color="#7aebff"/><stop offset="62%" stop-color="#82ecff"/><stop offset="100%" stop-color="#89edff"/></linearGradient><mask id="Y"><path fill="url(#Z)" d="M201.09 35.51c.048 15.713-24.829 28.528-55.565 28.622s-55.692-12.567-55.74-28.28S114.614 7.324 145.35 7.23s55.692 12.567 55.74 28.28z"/></mask><linearGradient id="Z" spreadMethod="pad" x1="51.549" y1="41.291" x2="135.34" y2="37.539" xlink:href="#AU"><stop stop-color="#fff" offset="0%" stop-opacity="0"/><stop stop-color="#fff" offset="60%" stop-opacity=".5"/><stop stop-color="#fff" offset="100%"/></linearGradient><linearGradient id="a" spreadMethod="pad" x1="146.335" y1="-106.955" x2="144.533" y2="11.578" xlink:href="#AU"><stop offset="0%" stop-color="#7aebff"/><stop offset="62%" stop-color="#82ecff"/><stop offset="100%" stop-color="#89edff"/></linearGradient><mask id="b"><path fill="url(#c)" d="M200.81 9.247c.188-.959.283-1.932.28-2.916a14.9 14.9 0 0 0-.28-2.8v-196.814H89.785V9.247h.246c2.592 14.498 26.457 25.795 55.494 25.706 28.811-.088 52.473-11.354 55.285-25.706z"/></mask><linearGradient id="c" spreadMethod="pad" x1="146.335" y1="-106.955" x2="144.533" y2="11.578" xlink:href="#AU"><stop stop-color="#fff" offset="0%" stop-opacity="0"/><stop stop-color="#fff" offset="60%" stop-opacity=".5"/><stop stop-color="#fff" offset="100%"/></linearGradient><linearGradient id="d" spreadMethod="pad" x1="51.547" y1="6.291" x2="135.338" y2="2.539" xlink:href="#AU"><stop offset="0%" stop-color="#7aebff"/><stop offset="62%" stop-color="#82ecff"/><stop offset="100%" stop-color="#89edff"/></linearGradient><mask id="e"><path fill="url(#f)" d="M201.09 1.16c.048 15.713-24.829 28.528-55.565 28.622S89.833 17.214 89.785 1.501s24.829-28.528 55.565-28.622 55.692 12.568 55.74 28.281z"/></mask><linearGradient id="f" spreadMethod="pad" x1="51.547" y1="6.291" x2="135.338" y2="2.539" xlink:href="#AU"><stop stop-color="#fff" offset="0%" stop-opacity="0"/><stop stop-color="#fff" offset="60%" stop-opacity=".5"/><stop stop-color="#fff" offset="100%"/></linearGradient><linearGradient id="g" spreadMethod="pad" x1="145.374" y1="-153.997" x2="145.374" y2="-61.994" xlink:href="#AU"><stop offset="0%" stop-color="#32adf3"/><stop offset="40%" stop-color="#26a5f3"/><stop offset="100%" stop-color="#1a9ef2"/></linearGradient><mask id="h"><path fill="url(#i)" d="M177.012-104.054c-.296-16.85-14.197-30.27-31.047-29.974s-30.271 14.195-29.975 31.046c.181 10.276 5.436 19.255 13.319 24.647 2.177 1.751 9.219 6.801 17.748 6.505 10.303-.358 18.697-7.753 18.697-7.753-.002-.094-.016-.184-.019-.277 7.014-5.711 11.448-14.449 11.277-24.194z"/></mask><linearGradient id="i" spreadMethod="pad" x1="145.374" y1="-153.997" x2="145.374" y2="-61.994" xlink:href="#AU"><stop stop-color="#fff" offset="0%" stop-opacity="0"/><stop stop-color="#fff" offset="42%" stop-opacity=".5"/><stop stop-color="#fff" offset="100%"/></linearGradient><linearGradient id="j" spreadMethod="pad" x1="145.533" y1="-136" x2="145.533" y2="-78.491" xlink:href="#AU"><stop offset="0%" stop-color="#73cbfd"/><stop offset="67%" stop-color="#5da3fc"/><stop offset="100%" stop-color="#467bfb"/></linearGradient><radialGradient id="k" spreadMethod="pad" cx="87.057" cy="-53.617" r="53.007" fx="87.057" fy="-53.617" xlink:href="#AU"><stop offset="0%" stop-color="#04afff"/><stop offset="55%" stop-color="#02a3ff"/><stop offset="100%" stop-color="#0096ff"/></radialGradient><mask id="l"><path fill="url(#m)" d="M91.197-58.899l-1.086 79.064c-.643 2.74-1.199-28.217-1.242-69.142s.443-76.325 1.086-79.065 1.199 28.216 1.242 69.143z"/></mask><radialGradient id="m" spreadMethod="pad" cx="87.057" cy="-53.617" r="53.007" fx="87.057" fy="-53.617" xlink:href="#AU"><stop stop-color="#fff" offset="0%" stop-opacity=".85"/><stop stop-color="#fff" offset="48%" stop-opacity=".425"/><stop stop-color="#fff" offset="96%" stop-opacity="0"/></radialGradient><radialGradient id="n" spreadMethod="pad" cx="200.593" cy="-83.88" r="71.279" fx="200.593" fy="-83.88" xlink:href="#AU"><stop offset="0%" stop-color="#04afff"/><stop offset="55%" stop-color="#02a3ff"/><stop offset="100%" stop-color="#0096ff"/></radialGradient><mask id="o"><path fill="url(#p)" d="M201.864-107.232l-1.087 79.063c-.643 2.74-1.199-28.216-1.242-69.141s.444-76.326 1.087-79.066 1.199 28.217 1.242 69.144z"/></mask><radialGradient id="p" spreadMethod="pad" cx="200.593" cy="-83.88" r="71.279" fx="200.593" fy="-83.88" xlink:href="#AU"><stop stop-color="#fff" offset="0%" stop-opacity=".85"/><stop stop-color="#fff" offset="48%" stop-opacity=".425"/><stop stop-color="#fff" offset="96%" stop-opacity="0"/></radialGradient><radialGradient id="q" spreadMethod="pad" cx="204.189" cy="-65.272" r="9.525" fx="204.189" fy="-65.272" xlink:href="#AU"><stop offset="0%" stop-color="#1bdbfe"/><stop offset="27%" stop-color="#3ddffe" stop-opacity=".5"/><stop offset="100%" stop-color="#5fe3ff" stop-opacity="0"/></radialGradient><radialGradient id="r" spreadMethod="pad" cx="200.416" cy="-127.547" r="7.462" fx="200.416" fy="-127.547" xlink:href="#AU"><stop offset="0%" stop-color="#1bdbfe"/><stop offset="27%" stop-color="#3ddffe" stop-opacity=".5"/><stop offset="100%" stop-color="#5fe3ff" stop-opacity="0"/></radialGradient><radialGradient id="s" spreadMethod="pad" cx="197.713" cy="-114.765" r="11.958" fx="197.713" fy="-114.765" xlink:href="#AU"><stop offset="0%" stop-color="#1bdbfe"/><stop offset="27%" stop-color="#3ddffe" stop-opacity=".5"/><stop offset="100%" stop-color="#5fe3ff" stop-opacity="0"/></radialGradient><radialGradient id="t" spreadMethod="pad" cx="90.225" cy="-61.781" r="14.133" fx="90.225" fy="-61.781" xlink:href="#AU"><stop offset="0%" stop-color="#1bdbfe"/><stop offset="27%" stop-color="#3ddffe" stop-opacity=".5"/><stop offset="100%" stop-color="#5fe3ff" stop-opacity="0"/></radialGradient><linearGradient id="u" spreadMethod="pad" x1="116.533" y1="-21" x2="172.627" y2="-21" xlink:href="#AU"><stop offset="0%" stop-color="#5356cf"/><stop offset="50%" stop-color="#74a7e7"/><stop offset="100%" stop-color="#95f7ff"/></linearGradient><linearGradient id="v" spreadMethod="pad" x1="123.533" y1="-19" x2="167.351" y2="-19" xlink:href="#AU"><stop offset="0%" stop-color="#5356cf"/><stop offset="50%" stop-color="#7364e5"/><stop offset="100%" stop-color="#9373fb"/></linearGradient><linearGradient id="w" spreadMethod="pad" x1="123.533" y1="-29" x2="167.294" y2="-29" xlink:href="#AU"><stop offset="0%" stop-color="#f3d038"/><stop offset="50%" stop-color="#e88955"/><stop offset="100%" stop-color="#dd4372"/></linearGradient><linearGradient id="x" spreadMethod="pad" x1="0" y1="-105.405" x2="-.45" y2="-2.252" xlink:href="#AU"><stop offset="0%" stop-color="#57b0f5"/><stop offset="50%" stop-color="#55c8fa"/><stop offset="100%" stop-color="#53e1ff"/></linearGradient><mask id="y"><path stroke="url(#z)" d=" M0,-110.5979995727539 C-58.35599899291992,-110.5979995727539 -105.66200256347656,-86.15399932861328 -105.66200256347656,-56 C-105.66200256347656,-25.84600067138672 -58.35599899291992,-1.4019999504089355 0,-1.4019999504089355 C58.35599899291992,-1.4019999504089355 105.66200256347656,-25.84600067138672 105.66200256347656,-56 C105.66200256347656,-86.15399932861328 58.35599899291992,-110.5979995727539 0,-110.5979995727539z" class="G"/></mask><linearGradient id="z" spreadMethod="pad" x1="0" y1="-105.405" x2="-.45" y2="-2.252" xlink:href="#AU"><stop stop-color="#fff" offset="0%" stop-opacity="0"/><stop stop-color="#fff" offset="34%" stop-opacity=".5"/><stop stop-color="#fff" offset="88%"/></linearGradient><linearGradient id="AA" spreadMethod="pad" x1="1.802" y1="-114.414" x2="4.054" y2="8.559" xlink:href="#AU"><stop offset="0%" stop-color="#57b0f5"/><stop offset="50%" stop-color="#55c8fa"/><stop offset="100%" stop-color="#53e1ff"/></linearGradient><mask id="AB"><path stroke="url(#AC)" stroke-width="1.5" d=" M0,-115.24800109863281 C63.32600021362305,-115.24800109863281 114.66200256347656,-88.72200012207031 114.66200256347656,-56 C114.66200256347656,-23.277999877929688 63.32600021362305,3.247999906539917 0,3.247999906539917 C-63.32600021362305,3.247999906539917 -114.66200256347656,-23.277999877929688 -114.66200256347656,-56 C-114.66200256347656,-88.72200012207031 -63.32600021362305,-115.24800109863281 0,-115.24800109863281z M0,-99.48799896240234 C46.48099899291992,-99.48799896240234 84.16200256347656,-80.01799774169922 84.16200256347656,-56 C84.16200256347656,-31.98200035095215 46.48099899291992,-12.51200008392334 0,-12.51200008392334 C-46.48099899291992,-12.51200008392334 -84.16200256347656,-31.98200035095215 -84.16200256347656,-56 C-84.16200256347656,-80.01799774169922 -46.48099899291992,-99.48799896240234 0,-99.48799896240234z"/></mask><linearGradient id="AC" spreadMethod="pad" x1="1.802" y1="-114.414" x2="4.054" y2="8.559" xlink:href="#AU"><stop stop-color="#fff" offset="0%" stop-opacity="0"/><stop stop-color="#fff" offset="27%" stop-opacity=".5"/><stop stop-color="#fff" offset="70%"/><stop stop-color="#fff" offset="91%" stop-opacity=".5"/><stop stop-color="#fff" offset="100%" stop-opacity="0"/></linearGradient><mask id="AD"><path stroke="url(#AE)" stroke-width="3.5" d=" M0,-106.46399688720703 C-53.9370002746582,-106.46399688720703 -97.66200256347656,-83.87100219726562 -97.66200256347656,-56 C-97.66200256347656,-28.128999710083008 -53.9370002746582,-5.535999774932861 0,-5.535999774932861 C53.9370002746582,-5.535999774932861 97.66200256347656,-28.128999710083008 97.66200256347656,-56 C97.66200256347656,-83.87100219726562 53.9370002746582,-106.46399688720703 0,-106.46399688720703z"/></mask><linearGradient id="AE" spreadMethod="pad" x1="0" y1="-105.405" x2="-.45" y2="-2.252" xlink:href="#AU"><stop stop-color="#fff" offset="0%" stop-opacity="0"/><stop stop-color="#fff" offset="27%" stop-opacity=".5"/><stop stop-color="#fff" offset="70%"/><stop stop-color="#fff" offset="91%" stop-opacity=".5"/><stop stop-color="#fff" offset="100%" stop-opacity="0"/></linearGradient><linearGradient id="AF" spreadMethod="pad" x1="-1.351" y1="-91.441" x2="-12.162" y2="-25.225" xlink:href="#AU"><stop offset="22%" stop-color="#57b0f5"/><stop offset="46%" stop-color="#55c8fa"/><stop offset="70%" stop-color="#53e1ff"/></linearGradient><mask id="AG"><path stroke="url(#AH)" d=" M0,-92.96399688720703 C39.507999420166016,-92.96399688720703 71.53600311279297,-76.41500091552734 71.53600311279297,-56 C71.53600311279297,-35.584999084472656 39.507999420166016,-19.035999298095703 0,-19.035999298095703 C-39.507999420166016,-19.035999298095703 -71.53600311279297,-35.584999084472656 -71.53600311279297,-56 C-71.53600311279297,-76.41500091552734 -39.507999420166016,-92.96399688720703 0,-92.96399688720703z" class="E"/></mask><linearGradient id="AH" spreadMethod="pad" x1="-1.351" y1="-91.441" x2="-12.162" y2="-25.225" xlink:href="#AU"><stop stop-color="#fff" offset="11%" stop-opacity="0"/><stop stop-color="#fff" offset="50%" stop-opacity=".5"/><stop stop-color="#fff" offset="89%"/></linearGradient><radialGradient id="AI" spreadMethod="pad" cx="60.292" cy="-18.859" r="18.085" fx="60.292" fy="-18.859" xlink:href="#AU"><stop offset="0%" stop-color="#205df8"/><stop offset="27%" stop-color="#663cea" stop-opacity=".5"/><stop offset="100%" stop-color="#ac1cdc" stop-opacity="0"/></radialGradient><radialGradient id="AJ" spreadMethod="pad" cx="233.807" cy="13.897" r="16.585" fx="233.807" fy="13.897" xlink:href="#AU"><stop offset="0%" stop-color="#438eff"/><stop offset="27%" stop-color="#219eff" stop-opacity=".5"/><stop offset="100%" stop-color="#00aeff" stop-opacity="0"/></radialGradient><radialGradient id="AK" spreadMethod="pad" cx="203.74" cy="34.618" r="12.051" fx="203.74" fy="34.618" xlink:href="#AU"><stop offset="0%" stop-color="#438eff"/><stop offset="27%" stop-color="#219eff" stop-opacity=".5"/><stop offset="100%" stop-color="#00aeff" stop-opacity="0"/></radialGradient><radialGradient id="AL" spreadMethod="pad" cx="295.64" cy="485.48" r="2.372" fx="295.64" fy="485.48" xlink:href="#AU"><stop offset="0%" stop-color="#83e4fe"/><stop offset="33%" stop-color="#64affc"/><stop offset="66%" stop-color="#467bfb"/><stop offset="83%" stop-color="#3d6bfb"/><stop offset="100%" stop-color="#345bfb"/></radialGradient><radialGradient id="AM" spreadMethod="pad" cx="50.533" cy="-4" r="4.471" fx="50.533" fy="-4" xlink:href="#AU"><stop offset="0%" stop-color="#f9e836"/><stop offset="50%" stop-color="#ea8177"/><stop offset="100%" stop-color="#db1ab8"/></radialGradient><radialGradient id="AN" spreadMethod="pad" cx="222.533" cy="-31" r="2.786" fx="222.533" fy="-31" xlink:href="#AU"><stop offset="0%" stop-color="#f9e836"/><stop offset="50%" stop-color="#ea8177"/><stop offset="100%" stop-color="#db1ab8"/></radialGradient><linearGradient id="AO" spreadMethod="pad" x1="2064.718" y1="52" x2="1951.577" y2="52" xlink:href="#AU"><stop offset="0%" stop-color="#5356cf"/><stop offset="50%" stop-color="#7364e5"/><stop offset="100%" stop-color="#9373fb"/></linearGradient><linearGradient id="AP" spreadMethod="pad" x1="16.533" y1="-33" x2="16.533" y2="50.123" xlink:href="#AU"><stop offset="0%" stop-color="#f3d038"/><stop offset="50%" stop-color="#e88955"/><stop offset="100%" stop-color="#dd4372"/></linearGradient><linearGradient id="AQ" spreadMethod="pad" x1="16.533" y1="-43.486" x2="16.983" y2="4.952" xlink:href="#AU"><stop offset="0%" stop-color="#5356cf"/><stop offset="50%" stop-color="#7364e5"/><stop offset="100%" stop-color="#9373fb"/></linearGradient><path id="AR" d="M232.076 114.91c8.394 4.846 21.942 4.884 30.388.085 8.504-4.831 8.595-12.747.226-17.688l-.151-.088c-8.394-4.846-21.955-4.907-30.401-.093-8.49 4.839-8.582 12.754-.213 17.696l.151.088"/><path id="AS" d="M154.167 173.687c-5.66 0-10.248 2.636-10.248 5.887s4.588 5.886 10.248 5.886 10.247-2.635 10.247-5.886-4.587-5.887-10.247-5.887zm0-5.531c10.977 0 19.876 5.112 19.876 11.418s-8.899 11.417-19.876 11.417-19.876-5.111-19.876-11.417 8.899-11.418 19.876-11.418z"/><path id="AT" d="M205.234-63.781c.155 2.32-1.6 4.328-3.92 4.483s-4.328-1.601-4.483-3.921 1.601-4.328 3.921-4.483 4.327 1.601 4.482 3.921z"/><linearGradient id="AU" gradientUnits="userSpaceOnUse"/></defs><g clip-path="url(#A)"><g transform="matrix(2.22 0 0 2.22 181.999756 538.001099)"><g style="mix-blend-mode:overlay" class="C B D E H I"><path stroke="url(#B)" mask="url(#C)" d="M0 0 M146.09100341796875,-9.008999824523926 C145.79800415039062,-9.008999824523926 145.50999450683594,-9.008999824523926 145.2169952392578,-9.008000373840332 C107.4530029296875,-8.892000198364258 71.98300170898438,-1.2690000534057617 45.3380012512207,12.456000328063965 C18.812000274658203,26.118999481201172 4.236999988555908,44.17900085449219 4.296000003814697,63.30699920654297 C4.418000221252441,102.79499816894531 67.36799621582031,134.7550048828125 144.79600524902344,134.75599670410156 C145.0850067138672,134.75599670410156 145.36900329589844,134.75599670410156 145.6580047607422,134.7550048828125 C183.4219970703125,134.63800048828125 218.89199829101562,127.01599884033203 245.53700256347656,113.29100036621094 C272.06298828125,99.62799835205078 286.6369934082031,81.56900024414062 286.5790100097656,62.441001892089844 C286.52099609375,43.3120002746582 271.8349914550781,25.343000411987305 245.2259979248047,11.842000007629395 C218.7050018310547,-1.6139999628067017 183.52699279785156,-9.008999824523926 146.09100341796875,-9.008999824523926z M146.01699829101562,-0.9210000038146973 C145.7570037841797,-0.9210000038146973 145.5019989013672,-0.9210000038146973 145.24200439453125,-0.9200000166893005 C111.72699737548828,-0.8169999718666077 80.24700164794922,5.947999954223633 56.60100173950195,18.128999710083008 C33.060001373291016,30.2549991607666 20.124000549316406,46.28200149536133 20.177000045776367,63.257999420166016 C20.28499984741211,98.3030014038086 76.1520004272461,126.66699981689453 144.8679962158203,126.66799926757812 C145.125,126.66799926757812 145.37600708007812,126.66799926757812 145.63299560546875,126.66699981689453 C179.1479949951172,126.56300354003906 210.6280059814453,119.79900360107422 234.2740020751953,107.61799621582031 C257.81500244140625,95.49199676513672 270.7510070800781,79.46399688720703 270.697998046875,62.48899841308594 C270.64599609375,45.512001037597656 257.6130065917969,29.565000534057617 233.9980010986328,17.583999633789062 C210.46099853515625,5.642000198364258 179.24099731445312,-0.9210000038146973 146.01699829101562,-0.9210000038146973z"/></g><path fill="#232323" d="M296.901 32.515v-.307-7.017l-4.149.757-.82-.524-90.506-52.254c-6.609-3.816-17.349-3.815-23.924.006L-7.606 80.749l-7.112.897s-.233 8.25.687 10.064c.777 1.531 2.205 2.973 4.29 4.177l90.506 52.254c6.618 3.821 17.339 3.821 23.914 0l187.322-108.86c3.182-1.849 4.803-4.259 4.894-6.687.006-.003.006-.079.006-.079z"/><path d="M189.456-29.691c4.331 0 8.667.954 11.97 2.861l90.506 52.254c.291.168.554.347.82.524l4.149-.757v7.017a6.28 6.28 0 0 1 0 .307v.076c-.097 2.431-1.718 4.841-4.9 6.69l-187.322 108.86c-3.288 1.911-7.611 2.866-11.941 2.866s-8.664-.956-11.973-2.866L-9.741 95.887c-2.085-1.204-3.513-2.646-4.29-4.177-.92-1.814-.687-10.064-.687-10.064l7.112-.897L177.502-26.824c3.289-1.911 7.619-2.867 11.954-2.867m0-.5c-4.615 0-8.949 1.042-12.205 2.934L-7.77 80.266l-7.011.884-.425.053-.012.429c-.024.857-.209 8.431.741 10.304.842 1.66 2.394 3.176 4.486 4.384l90.506 52.254c3.276 1.891 7.616 2.933 12.223 2.933s8.937-1.042 12.192-2.934L292.252 39.714c3.105-1.805 4.915-4.219 5.126-6.825.017-.01.023-.298.023-.298v-.076c.003-.099.003-.211 0-.322v-7.002-.6l-.59.108-3.95.721c-.219-.145-.439-.291-.679-.429l-90.506-52.254c-3.27-1.888-7.611-2.928-12.22-2.928zm76.793 79.594c-.217 0-.445.069-.677.203l-12.991 7.5c-.762.44-1.358 1.475-1.356 2.355.002.673.377 1.125.933 1.125.218 0 .447-.068.681-.203l12.991-7.501c.762-.44 1.357-1.471 1.355-2.348-.002-.676-.378-1.131-.936-1.131zm-22.381 13.22c-.217 0-.445.069-.677.203l-7.388 4.19c-.764.441-1.36 1.476-1.357 2.356.002.673.377 1.126.933 1.126a1.37 1.37 0 0 0 .681-.204l7.388-4.191c.764-.441 1.359-1.473 1.356-2.349-.002-.676-.378-1.131-.936-1.131z"/><path fill="url(#E)" d="M243.679 63.405c.684-.395 1.236-.074 1.238.712s-.546 1.736-1.23 2.131l-7.39 4.192c-.684.395-1.236.08-1.238-.706s.546-1.743 1.23-2.138l7.39-4.191zm22.38-13.22c.684-.395 1.236-.074 1.238.712s-.546 1.736-1.23 2.131l-12.991 7.501c-.684.395-1.236.08-1.238-.706s.546-1.743 1.23-2.138l12.991-7.5z"/><path fill="url(#F)" d="M276.61 48.225l15.391-8.944c3.182-1.849 4.803-4.259 4.894-6.687.006-.003.006-.079.006-.079a6.28 6.28 0 0 0 0-.307v-7.017l-4.149.757-.82-.524-12.839-7.412h-2.483v30.213z"/><path fill="url(#G)" d="M113.514 119.019H70.746v23.338l10.019 5.784c6.618 3.821 17.339 3.821 23.914 0l8.835-5.134v-23.988z"/><path fill="url(#H)" d="M291.932 18.417c6.618 3.821 6.644 10.036.069 13.857l-187.322 108.86c-6.575 3.821-17.296 3.821-23.914 0L-9.742 88.88c-6.609-3.816-6.653-10.031-.078-13.852L177.502-33.831c6.575-3.821 17.314-3.822 23.923-.006l90.507 52.254z"/><path fill="url(#I)" d="M189.456-36.698c4.332 0 8.666.954 11.97 2.861l90.506 52.254c6.618 3.821 6.644 10.036.069 13.857l-187.322 108.86c-3.288 1.911-7.612 2.866-11.941 2.866s-8.664-.955-11.973-2.866L-9.742 88.88c-6.609-3.816-6.653-10.031-.078-13.852L177.502-33.831c3.288-1.911 7.62-2.867 11.954-2.867m.001-.5c-4.616 0-8.95 1.042-12.206 2.934L-10.071 74.596c-3.327 1.934-5.158 4.538-5.154 7.334.004 2.815 1.862 5.437 5.233 7.383l90.507 52.254c3.276 1.891 7.617 2.933 12.223 2.933s8.937-1.042 12.192-2.934L292.252 32.707c3.333-1.937 5.166-4.545 5.162-7.343-.004-2.813-1.862-5.434-5.232-7.38L201.676-34.27c-3.27-1.888-7.61-2.928-12.219-2.928z"/><path fill="url(#J)" d="M288.865 20.206c4.924 2.843 4.95 7.45.058 10.293L101.601 139.358c-4.892 2.843-12.845 2.843-17.769 0L-6.675 87.104c-4.915-2.838-4.95-7.449-.058-10.292l187.322-108.86c4.892-2.843 12.855-2.838 17.77 0l25.537 14.744c.824.476 1.022 1.208.481 1.801l-2.127 2.362c-.651.721-.406 1.598.584 2.17l29.573 17.074c.99.572 2.505.711 3.739.326l4.071-1.24c1.032-.31 2.296-.198 3.12.278l25.528 14.739z"/><path fill="url(#K)" d="M253.848 1.576c.583.337.577.877.007 1.208a2.28 2.28 0 0 1-2.076-.005c-.574-.331-.576-.866-.006-1.197s1.501-.337 2.075-.006zm-8.064-4.074c.305.176.307.468.004.644s-.801.173-1.106-.003l-11.076-6.395c-.305-.176-.307-.461-.004-.637s.801-.18 1.106-.004l11.076 6.395z"/><path fill="url(#L)" d="M260.217 5.189l-4.071 1.24c-1.234.385-2.749.246-3.739-.326l-29.573-17.074c-.99-.572-1.235-1.449-.584-2.17l2.127-2.362c.541-.593.343-1.325-.481-1.801l-25.537-14.744c-4.915-2.838-12.878-2.843-17.77 0L71.521 31.336c25.729 9.656 57.123 15.331 91.012 15.331 48.364 0 91.644-11.557 120.626-29.755L263.336 5.467c-.824-.475-2.088-.588-3.119-.278z"/><g style="mix-blend-mode:multiply" opacity=".998"><path fill="url(#M)" d="M101.924 95.264c2.133 1.231 2.15 3.228.025 4.463l-27.247 15.834c-2.119 1.232-5.573 1.231-7.706 0L39.572 99.728c-2.133-1.232-2.145-3.232-.026-4.464L66.793 79.43c2.125-1.235 5.573-1.232 7.706 0l27.425 15.834z"/></g><g transform="translate(0 -.267)"><path fill="url(#N)" d="M107.249 88.882l-.019.067c-.067.192-.167.38-.29.565l-.067.101c-.136.188-.299.37-.495.545l-.068.056a4.82 4.82 0 0 1-.725.516l-30.422 17.679c-.264.153-.551.283-.848.402l-.237.09c-.184.067-.377.12-.569.174l-.61.151-.742.128-.178.024c-.338.036-.681.054-1.024.057l-.163.001c-.339-.002-.677-.021-1.011-.056l-.15-.017-.979-.168-.172-.042c-.29-.072-.573-.158-.845-.257l-.15-.05a6.68 6.68 0 0 1-.926-.437L35.938 90.732c-.899-.519-1.46-1.161-1.684-1.832a2.12 2.12 0 0 1-.11-.677l-.005 1.63c-.003.908.596 1.817 1.794 2.509l30.621 17.679a6.62 6.62 0 0 0 .876.42l.05.017.151.051a8.25 8.25 0 0 0 .537.181l.306.075.173.043.156.038a9.85 9.85 0 0 0 .603.105l.22.024.151.017.222.025a10.85 10.85 0 0 0 .6.032l.189-.001h.161l.274-.002a10.86 10.86 0 0 0 .676-.045l.076-.01.177-.025.524-.073c.076-.014.144-.039.219-.054a9 9 0 0 0 .608-.152l.324-.081.247-.093.236-.089c.297-.119.584-.25.848-.403l30.422-17.679.075-.044a4.73 4.73 0 0 0 .65-.471l.068-.056s.037-.029.053-.044a3.46 3.46 0 0 0 .377-.406c.025-.031.042-.064.065-.096s.046-.066.068-.1l.112-.167a2.57 2.57 0 0 0 .162-.346c.007-.018.009-.035.015-.053s.012-.045.019-.067l.064-.222a2.06 2.06 0 0 0 .04-.349l.001-.053.005-1.63a2.11 2.11 0 0 1-.105.624z"/><path fill="url(#O)" d="M105.557 85.748c2.381 1.375 2.4 3.605.028 4.984l-30.422 17.679c-2.366 1.375-6.223 1.375-8.604 0L35.938 90.732c-2.382-1.375-2.394-3.609-.028-4.984l30.422-17.679c2.372-1.379 6.222-1.375 8.604 0l30.621 17.679z"/><path fill="url(#P)" d="M74.17 75.542l1.122.696.299.157c.303.175.559.455.04 1.186l-2.548 3.599c-.123.264-.369.504-.99.624l-1.076.192c-.124.024-.29.024-.456.024l-1.946.072c-.621.024-1.201.023-1.488.575-.24.531-.939 2.328-.721 4.271.263 2.495 1.555 3.958 1.889 4.486.125.215.264.369.444.473.242.14.558.189 1.009.175l4.141-.24c.59-.068.925-.004 1.181.144.193.111.341.27.52.456.334.432 1.798 2.951 2.132 3.479.293.504.544.84.462 1.032-.082.24-1.279.935-3.14 1.439-1.902.528-5.675-.12-6.838-.696-.486-.24-.906-.301-1.504-.646-.834-.482-2.015-1.517-4.205-4.365-3.708-4.874-1.421-10.631-1.299-11.039.081-.288.444-2.04 1.968-3.599.411-.48.988-.96 1.649-1.344 2.931-1.704 5.873-1.631 7.033-1.631 1.159-.048 1.906.24 2.322.48z"/></g><g style="mix-blend-mode:multiply" opacity=".47" transform="matrix(.989295 0 0 .989295 2.645874 1.145866)"><path fill="url(#Q)" d="M267.973 119.659c-6.726 3.825-15.824 5.391-24.519 4.733-.016.009-.018.008-.021.008-.091-.007-.18-.02-.271-.027l.045.003a50.16 50.16 0 0 1-2.524-.27c.065.008.129.021.194.029l-.429-.055c-.077-.01-.152-.025-.229-.036l-.929-.146c.184.03.371.054.556.082a46.5 46.5 0 0 1-1.924-.328l.682.137c-.284-.05-.563-.11-.845-.165l-.706-.146-.153-.031.13.026c-.67-.143-1.331-.304-1.986-.476l1.32.339c-.481-.111-.952-.237-1.424-.363l-.546-.142c-.071-.02-.144-.035-.214-.055.068.019.138.034.206.053a40.07 40.07 0 0 1-2.629-.829l-.245-.089-.107-.039-.154-.057-.171-.065-.106-.04c-1.617-.619-3.153-1.34-4.578-2.163l-.24-.14-.266-.159c-1.757-1.06-3.229-2.216-4.421-3.438-.027-.027-.054-.056-.08-.083l-.064-.066c-.364-.382-.697-.772-1.007-1.166-.032-.041-.067-.082-.099-.123-.277-.359-.526-.724-.758-1.091l-.154-.241a12.55 12.55 0 0 1-.546-1.018c-.057-.116-.116-.231-.168-.348a11.29 11.29 0 0 1-.37-.954l-.142-.431c-.003-.011-.008-.022-.011-.033l-.005-.032c-1.548-5.324 1.245-10.978 8.383-15.042 11.546-6.574 30.104-6.512 41.588.118l.229.134c11.471 6.758 11.339 17.603-.292 24.225z"/></g><use xlink:href="#AR" fill-opacity=".2"/><g transform="translate(0 -4.964)"><use xlink:href="#AR" fill="url(#R)"/><path fill="#f9fbfc" d="M244.366 107.584l.093.055c5.073 2.987 5.049 7.765-.01 10.729-2.989-.228-5.912-.814-8.559-1.759l-.18-.065c-.026-.009-.052-.019-.078-.029l-.113-.042-.125-.047-.078-.029a23.56 23.56 0 0 1-3.354-1.585l-.176-.102-.195-.117c-1.287-.777-2.366-1.624-3.239-2.519-.02-.02-.039-.04-.058-.06s-.031-.033-.047-.049c-1.189-1.249-1.982-2.589-2.384-3.96-.052-.299-.059-.469-.059-.478 5.155-2.937 13.436-2.903 18.562.057zm13.231-7.245l.056.033c3.118 1.841 3.083 4.79-.085 6.59-3.144 1.792-8.194 1.773-11.321-.032l-.056-.033c-3.118-1.841-3.084-4.79.079-6.593 3.149-1.789 8.2-1.77 11.327.035z"/></g><g style="mix-blend-mode:overlay" class="C B G"><path stroke="#3fe6ff" d="M157.28 174.864l16.821-37.137"/></g><g style="mix-blend-mode:multiply"><g opacity=".569" transform="matrix(.852649 0 0 .852649 22.716675 26.466766)"><use xlink:href="#AS" fill="url(#S)"/></g><g transform="matrix(.749954 0 0 .749954 38.548889 44.912567)"><use xlink:href="#AS" fill="url(#T)"/></g></g><g style="mix-blend-mode:multiply" transform="matrix(.5 0 0 .5 98.141502 46.284004)"><g opacity=".569" transform="matrix(.928662 0 0 .928662 10.99794 12.813492)"><use xlink:href="#AS" fill="url(#S)"/></g><g transform="matrix(.641465 0 0 .641465 55.274223 64.398926)"><use xlink:href="#AS" fill="url(#T)"/></g></g></g><g transform="matrix(2.22 0 0 2.22 181.999329 538.000244)"><path fill="#727272" fill-opacity=".3" d="M141.261-155.194c-2.556 2.571-2.544 6.742.028 9.298s6.743 2.544 9.299-.028 2.543-6.744-.029-9.299-6.742-2.543-9.298.029zm28.955-16.76c-13.563-13.48-35.564-13.412-49.044.151-1.297 1.305-1.291 3.415.014 4.713s3.415 1.291 4.713-.014c10.889-10.956 28.663-11.011 39.619-.122 1.305 1.297 3.416 1.291 4.713-.014s1.29-3.417-.015-4.714zm-39.574 9.563c-1.297 1.305-1.291 3.416.014 4.713s3.416 1.291 4.713-.014c5.699-5.735 15.003-5.764 20.737-.064 1.305 1.297 3.416 1.291 4.713-.014s1.291-3.416-.015-4.714c-8.341-8.29-21.872-8.248-30.162.093zm10.619 7.197c-2.556 2.571-2.544 6.742.028 9.298s6.743 2.544 9.299-.028 2.543-6.744-.029-9.299-6.742-2.543-9.298.029z"/><path fill="#4fe8ff" d="M141.261-155.194c-2.556 2.571-2.544 6.742.028 9.298s6.743 2.544 9.299-.028 2.543-6.744-.029-9.299-6.742-2.543-9.298.029z"/><g opacity="0"><path fill="#4fe8ff" d="M170.216-171.954c-13.563-13.48-35.564-13.412-49.044.151-1.297 1.305-1.291 3.415.014 4.713s3.415 1.291 4.713-.014c10.889-10.956 28.663-11.011 39.619-.122 1.305 1.297 3.416 1.291 4.713-.014s1.29-3.417-.015-4.714z"/></g><g opacity=".97"><path fill="#4ee8ff" d="M130.642-162.391c-1.297 1.305-1.291 3.416.014 4.713s3.416 1.291 4.713-.014c5.699-5.735 15.003-5.764 20.737-.064 1.305 1.297 3.416 1.291 4.713-.014s1.291-3.416-.015-4.714c-8.341-8.29-21.872-8.248-30.162.093z"/></g><g style="mix-blend-mode:overlay" class="C"><path fill="url(#U)" mask="url(#V)" d="M201.126 47.391c.048 15.713-24.828 28.528-55.564 28.622S89.87 63.445 89.822 47.732s24.829-28.528 55.565-28.622 55.691 12.568 55.739 28.281z"/></g><g style="mix-blend-mode:overlay" transform="translate(0 -2.017)" class="C"><path fill="url(#X)" mask="url(#Y)" d="M201.09 35.51c.048 15.713-24.829 28.528-55.565 28.622s-55.692-12.567-55.74-28.28S114.614 7.324 145.35 7.23s55.692 12.567 55.74 28.28z"/></g><g style="mix-blend-mode:overlay" class="C"><path fill="url(#a)" mask="url(#b)" d="M200.81 9.247c.188-.959.283-1.932.28-2.916a14.9 14.9 0 0 0-.28-2.8v-196.814H89.785V9.247h.246c2.592 14.498 26.457 25.795 55.494 25.706 28.811-.088 52.473-11.354 55.285-25.706z"/></g><g style="mix-blend-mode:overlay" transform="translate(0 -9.108)" class="C"><path fill="url(#d)" mask="url(#e)" d="M201.09 1.16c.048 15.713-24.829 28.528-55.565 28.622S89.833 17.214 89.785 1.501s24.829-28.528 55.565-28.622 55.692 12.568 55.74 28.281z"/></g><g style="mix-blend-mode:overlay" transform="matrix(1.087382 0 0 1.087382 -12.780182 8.981766)" class="C"><path fill="url(#g)" mask="url(#h)" d="M177.012-104.054c-.296-16.85-14.197-30.27-31.047-29.974s-30.271 14.195-29.975 31.046c.181 10.276 5.436 19.255 13.319 24.647 2.177 1.751 9.219 6.801 17.748 6.505 10.303-.358 18.697-7.753 18.697-7.753-.002-.094-.016-.184-.019-.277 7.014-5.711 11.448-14.449 11.277-24.194z"/></g><path fill="url(#j)" d="M161.178-116.703c-.003-.87-.711-1.574-1.581-1.571l-4.814.014v-.24a1.75 1.75 0 0 0-1.75-1.75h-13.125a1.75 1.75 0 0 0-1.75 1.75v.291l-4.843.015c-.871.003-1.575.711-1.572 1.582l.058 18.899s2.223 11.985 14.763 14.672c12.523-2.764 14.672-14.762 14.672-14.762l-.058-18.9zM144.8-91.8l-8.11-5.89 2.78-3.83 4.41 3.2 8.71-11.18 3.73 2.91L144.8-91.8z"/><path fill="#fff" d="M144.798-91.798l-8.11-5.893 2.782-3.829 4.407 3.202 8.712-11.18 3.734 2.91-11.525 14.79z"/><path fill="url(#k)" mask="url(#l)" d="M91.197-58.899l-1.086 79.064c-.643 2.74-1.199-28.217-1.242-69.142s.443-76.325 1.086-79.065 1.199 28.216 1.242 69.143z"/><path fill="url(#n)" mask="url(#o)" d="M201.864-107.232l-1.087 79.063c-.643 2.74-1.199-28.216-1.242-69.141s.444-76.326 1.087-79.066 1.199 28.217 1.242 69.144z"/><g transform="translate(0 26.513)"><use xlink:href="#AT" fill="url(#q)"/></g><g transform="translate(0 -33.541)"><path fill="url(#r)" d="M203.898-131.008a3.25 3.25 0 0 1-3.023 3.456 3.25 3.25 0 0 1-3.457-3.023 3.25 3.25 0 0 1 3.023-3.457 3.25 3.25 0 0 1 3.457 3.024z"/></g><g transform="translate(0 45)"><path fill="url(#s)" d="M206.676-119.945c.223 3.324-2.291 6.199-5.615 6.422s-6.199-2.292-6.422-5.616 2.292-6.198 5.616-6.421 6.198 2.291 6.421 5.615z"/></g><g transform="translate(0 -21.685)"><path fill="url(#t)" d="M96.01-67.278c.223 3.324-2.292 6.198-5.616 6.421a6.03 6.03 0 0 1-6.421-5.615c-.223-3.324 2.291-6.198 5.615-6.421s6.199 2.291 6.422 5.615z"/></g><g style="mix-blend-mode:multiply" opacity=".8" transform="matrix(.895048 0 0 .895048 15.278931 -2.204205)"><path fill="url(#u)" d="M165.301-32.431c10.987 6.343 11.048 16.63.129 22.975s-28.678 6.343-39.664 0-11.045-16.632-.13-22.975 28.675-6.345 39.665 0z"/></g><path fill="url(#v)" d="M167.419-27.95l-.024.332-.036.286-.052.329-.06.289-.078.319-.084.289-.105.317-.107.282-.14.332-.129.277-.169.328-.148.265-.239.388-.153.235-.309.423-.138.184-.568.662-.16.166-.48.483-.255.233-.315.275-.301.251-.343.269-.326.244-.369.259-.35.237-.396.251-.508.31-1.006.546-.297.148-.811.382-.279.125-1.09.445-.196.071-.95.333-.398.129-.531.162-.454.13-.545.145-.46.116-.558.129-.464.101-.572.113-.44.082-1.239.198-.172.022-1.093.13-.419.041-.703.059-.444.03-.735.037-.417.018-.636.012-.451.006c-.227.001-.455-.003-.682-.007l-.405-.005-.629-.025-.435-.018-.671-.045-.391-.028-.827-.08-.225-.022-1.045-.132-.183-.029-.875-.138-.374-.069-.671-.128-.355-.078-.731-.165-.408-.102-.663-.176-.373-.106-1.035-.322-.182-.059-1.156-.422-.24-.097-1.449-.631-.141-.07-1.437-.756c-4.314-2.491-6.468-5.76-6.459-9.024l-.079 7.178c-.009 3.264 2.145 6.533 6.459 9.024.463.267.945.518 1.437.756l.141.07a25.22 25.22 0 0 0 1.449.631c.043.018.084.038.128.055.037.015.075.027.112.041a28.27 28.27 0 0 0 1.156.423l.182.058a30.4 30.4 0 0 0 1.035.322c.058.017.113.037.171.053.066.019.135.035.202.054l.663.175.407.103.732.165.279.063c.025.005.051.009.076.014l.671.128.373.07a35.52 35.52 0 0 0 .876.138c.058.008.115.019.173.027l1.055.134.229.022.823.08c.007.001.014.001.021.002l.371.025.67.046.435.018.629.024c.017.001.034.001.051.002l.354.004.682.007c.15 0 .301-.005.451-.007l.636-.012.119-.002c.099-.003.199-.011.298-.015l.735-.037.443-.031.704-.059c.082-.008.165-.012.247-.02l.171-.02a35.88 35.88 0 0 0 1.094-.131l.172-.022a33.64 33.64 0 0 0 1.239-.197c.038-.007.078-.012.116-.019l.324-.063.572-.113.464-.102.558-.128.46-.116.545-.146.454-.13.531-.162c.078-.025.157-.046.234-.071.055-.018.109-.039.164-.057.32-.106.637-.218.95-.334l.196-.071a25.85 25.85 0 0 0 1.09-.445l.279-.125c.274-.123.545-.25.811-.382l.296-.148a21.51 21.51 0 0 0 1.007-.546l.267-.157c.082-.05.159-.102.24-.152l.398-.252.348-.236.37-.26.326-.244.342-.268a12.59 12.59 0 0 0 .302-.252l.315-.275c.042-.038.089-.075.13-.113s.072-.073.11-.109a13.56 13.56 0 0 0 .495-.493l.16-.167c.201-.218.391-.439.568-.662.008-.009.017-.018.024-.028.04-.051.074-.104.113-.155a11.69 11.69 0 0 0 .31-.424c.053-.078.102-.157.152-.235a10.67 10.67 0 0 0 .24-.387c.021-.036.046-.07.066-.106.03-.053.053-.107.082-.16.059-.109.115-.218.169-.328.045-.092.088-.184.129-.277a8.64 8.64 0 0 0 .14-.331c.02-.05.043-.098.062-.148s.029-.09.045-.135c.037-.105.072-.211.105-.316.03-.097.058-.193.084-.29.028-.106.054-.212.078-.318.013-.058.03-.115.042-.173.008-.039.011-.078.018-.117a7.44 7.44 0 0 0 .052-.328l.036-.287a7.31 7.31 0 0 0 .024-.33c.003-.064.011-.129.013-.193l.004-.192.079-7.178c-.001.128-.01.256-.017.384z"/><g transform="translate(0 .47)"><path fill="url(#w)" d="M160.955-37.685c8.571 4.948 8.618 12.974.1 17.924s-22.372 4.948-30.943 0-8.616-12.974-.101-17.923 22.37-4.951 30.944-.001zm-4.618 6.26c2.591 1.496 2.989 3.881-.062 6.402l2.666 1.539-3.362 1.954-2.546-1.47c-2.528 1.302-5.488 2.275-7.806 2.592l-2.318-3.436c2.512-.375 5.207-1.248 7.044-2.316 1.596-.928 1.832-1.455 1.259-1.786-2.114-1.221-9.635 5.126-15.901 1.508-2.712-1.565-3.037-4.016.322-6.608l-2.619-1.512 3.362-1.954 2.571 1.484c1.934-.929 4.102-1.664 6.231-2.011l2.414 3.353c-2.484.473-4.444 1.139-5.897 1.983-1.647.957-1.695 1.538-1.118 1.871 2.018 1.165 9.566-5.169 15.76-1.593z"/><path fill="#fff" d="M156.337-31.425c2.591 1.496 2.989 3.881-.062 6.402l2.666 1.539-3.362 1.954-2.546-1.47c-2.528 1.302-5.488 2.275-7.806 2.592l-2.318-3.436c2.512-.375 5.207-1.248 7.044-2.316 1.596-.928 1.832-1.455 1.259-1.786-2.114-1.221-9.635 5.126-15.901 1.508-2.712-1.565-3.037-4.016.322-6.608l-2.619-1.512 3.362-1.954 2.571 1.484c1.934-.929 4.102-1.664 6.231-2.011l2.414 3.353c-2.484.473-4.444 1.139-5.897 1.983-1.647.957-1.695 1.538-1.118 1.871 2.018 1.165 9.566-5.169 15.76-1.593z"/></g><g transform="translate(147.748 65.991)" class="B D F"><path stroke="url(#x)" mask="url(#y)" stroke-dasharray=" 92 40" stroke-dashoffset="162.44842529296875" d="M0 0 M0,-110.5979995727539 C-58.35599899291992,-110.5979995727539 -105.66200256347656,-86.15399932861328 -105.66200256347656,-56 C-105.66200256347656,-25.84600067138672 -58.35599899291992,-1.4019999504089355 0,-1.4019999504089355 C58.35599899291992,-1.4019999504089355 105.66200256347656,-25.84600067138672 105.66200256347656,-56 C105.66200256347656,-86.15399932861328 58.35599899291992,-110.5979995727539 0,-110.5979995727539z" class="G"/><path stroke="url(#AA)" mask="url(#AB)" stroke-width="1.5" d="M0 0 M0,-115.24800109863281 C63.32600021362305,-115.24800109863281 114.66200256347656,-88.72200012207031 114.66200256347656,-56 C114.66200256347656,-23.277999877929688 63.32600021362305,3.247999906539917 0,3.247999906539917 C-63.32600021362305,3.247999906539917 -114.66200256347656,-23.277999877929688 -114.66200256347656,-56 C-114.66200256347656,-88.72200012207031 -63.32600021362305,-115.24800109863281 0,-115.24800109863281z M0,-99.48799896240234 C46.48099899291992,-99.48799896240234 84.16200256347656,-80.01799774169922 84.16200256347656,-56 C84.16200256347656,-31.98200035095215 46.48099899291992,-12.51200008392334 0,-12.51200008392334 C-46.48099899291992,-12.51200008392334 -84.16200256347656,-31.98200035095215 -84.16200256347656,-56 C-84.16200256347656,-80.01799774169922 -46.48099899291992,-99.48799896240234 0,-99.48799896240234z" class="H I"/><path stroke="url(#x)" mask="url(#AD)" stroke-dasharray=" 100 20" stroke-dashoffset="-771.45263671875" stroke-width="3.5" d="M0 0 M0,-106.46399688720703 C-53.9370002746582,-106.46399688720703 -97.66200256347656,-83.87100219726562 -97.66200256347656,-56 C-97.66200256347656,-28.128999710083008 -53.9370002746582,-5.535999774932861 0,-5.535999774932861 C53.9370002746582,-5.535999774932861 97.66200256347656,-28.128999710083008 97.66200256347656,-56 C97.66200256347656,-83.87100219726562 53.9370002746582,-106.46399688720703 0,-106.46399688720703z"/><path stroke="url(#AF)" mask="url(#AG)" d="M0 0 M0,-92.96399688720703 C39.507999420166016,-92.96399688720703 71.53600311279297,-76.41500091552734 71.53600311279297,-56 C71.53600311279297,-35.584999084472656 39.507999420166016,-19.035999298095703 0,-19.035999298095703 C-39.507999420166016,-19.035999298095703 -71.53600311279297,-35.584999084472656 -71.53600311279297,-56 C-71.53600311279297,-76.41500091552734 -39.507999420166016,-92.96399688720703 0,-92.96399688720703z" class="E H I"/></g><g transform="translate(31.631 72.62)"><path fill="url(#AI)" d="M62.097-18.014a5.34 5.34 0 0 1-4.97 5.683 5.34 5.34 0 0 1-5.684-4.97 5.34 5.34 0 0 1 4.97-5.683 5.34 5.34 0 0 1 5.684 4.97z"/></g><g transform="translate(-155.439 -24.011)"><path fill="url(#AJ)" d="M238.599 12.46c.298 4.455-3.071 8.308-7.526 8.606s-8.309-3.071-8.607-7.526 3.072-8.308 7.527-8.606 8.308 3.071 8.606 7.526z"/></g><g transform="translate(-77.935 13.113)"><path fill="url(#AK)" d="M207.734 31.719c.155 2.32-1.6 4.328-3.92 4.483s-4.328-1.601-4.483-3.921 1.601-4.328 3.921-4.483 4.327 1.601 4.482 3.921z"/></g><g transform="translate(104.503 -9.281)"><path fill="url(#AL)" d="M80.533-39.134c1.141 1.141 1.141 2.993 0 4.134s-2.993 1.141-4.134 0-1.141-2.993 0-4.134 2.992-1.141 4.134 0z"/></g><g transform="translate(20.823 42.687)"><path fill="url(#AM)" d="M56.533-1.41a4.28 4.28 0 0 1-4.279 4.279 4.28 4.28 0 0 1-4.279-4.279 4.28 4.28 0 0 1 4.279-4.279 4.28 4.28 0 0 1 4.279 4.279z"/></g><g transform="translate(9.841 16.208)"><path fill="url(#AN)" d="M226.866-29c0 1.473-1.193 2.667-2.666 2.667A2.67 2.67 0 0 1 221.533-29a2.67 2.67 0 0 1 2.667-2.667c1.473 0 2.666 1.194 2.666 2.667z"/></g><g transform="matrix(-1 -.57735 0 1 319.369995 67.114555)" class="B D"><path stroke="#83e4fe" stroke-width="8" d="M78.743-53.002l-15.287.007m15.287-14.497l-46.956.023m46.959-14.078l-55.573.003m55.573-14.052l-13.339-.022"/></g><g transform="matrix(1 -.57735 0 1 0 43.691559)" class="B D"><path stroke="#83e4fe" stroke-width="5" d="M75.895-51.589l-25.547.012m25.547-7.895l-25.547.012m25.549-7.658l-30.235.001m30.234-7.645l-7.257-.012m7.256-13.977l-25.547.012m25.549-7.659l-30.235.002m30.083-7.645l-7.106-.012"/></g><path fill="url(#AO)" d="M75.896 25.49c-6.599 6.307-14.118 11.739-18.924 5.391-6.501-8.588-9.694-10.946-18.416-5.273L151.696 90.93c-.238-.482-7.332-39.531-15.784-29.853-10.724 12.261-15.9-7.345-16.908-12.775-4.153-22.648-12.925-26.377-20.296-20.037-11.966 10.345-12.913-12.236-22.813-2.774z"/><g transform="matrix(.069063 0 0 .069063 37.635925 2.305931)"><path fill="url(#AP)" d="M41.205-5.691l-.001-.608-.02-7.122c-.005-1.779-1.26-2.494-2.808-1.6L-4.003 9.446c-1.548.894-2.795 3.053-2.79 4.832l.022 7.731c.009 2.995 2.132 4.205 4.739 2.7l13.972-8.066 10.01-5.78 14.547-8.399c.251-.145.496-.317.734-.5l3.186 1.816c.096.055.215.036.332-.032.245-.142.482-.497.481-.826l-.025-8.613z"/></g><g transform="matrix(.982358 0 0 .982358 .715221 -.37549)"><path fill="url(#AQ)" d="M41.205-29.691l-.001-.608-.02-7.122c-.005-1.779-1.26-2.494-2.808-1.6L-4.003-14.554c-1.548.894-2.795 3.053-2.79 4.832l.022 7.731c.009 2.995 2.132 4.205 4.739 2.7L11.94-7.357l10.01-5.78 14.547-8.399c.251-.145.496-.317.734-.5l3.186 1.816c.096.055.215.036.332-.032.245-.142.482-.497.481-.826l-.025-8.613z"/></g></g></g></svg>